<svg width="32" height="32" viewBox="0 0 32 32" fill="none" xmlns="http://www.w3.org/2000/svg">
<path fill-rule="evenodd" clip-rule="evenodd" d="M13.3333 5.33317C12.597 5.33317 12 5.93012 12 6.6665V19.9998C12 20.7362 12.597 21.3332 13.3333 21.3332H24C24.7364 21.3332 25.3333 20.7362 25.3333 19.9998V11.2188L19.4477 5.33317H13.3333ZM9.33333 6.6665C9.33333 4.45736 11.1242 2.6665 13.3333 2.6665H19.4477C20.155 2.6665 20.8332 2.94746 21.3333 3.44755L27.219 9.33317C27.7191 9.83327 28 10.5115 28 11.2188V19.9998C28 22.209 26.2091 23.9998 24 23.9998H22.6667V25.3332C22.6667 27.5423 20.8758 29.3332 18.6667 29.3332H8C5.79086 29.3332 4 27.5423 4 25.3332V11.9998C4 9.7907 5.79086 7.99984 8 7.99984H9.33333V6.6665ZM9.33333 10.6665H8C7.26362 10.6665 6.66667 11.2635 6.66667 11.9998V25.3332C6.66667 26.0695 7.26362 26.6665 8 26.6665H18.6667C19.403 26.6665 20 26.0695 20 25.3332V23.9998H13.3333C11.1242 23.9998 9.33333 22.209 9.33333 19.9998V10.6665Z" fill="#9AA0A6"/>
</svg>
