<svg width="33" height="33" viewBox="0 0 33 33" fill="none" xmlns="http://www.w3.org/2000/svg">
<path fill-rule="evenodd" clip-rule="evenodd" d="M28.1095 8.89036C28.6302 9.41106 28.6302 10.2553 28.1095 10.776L22.7761 16.1093C22.2554 16.63 21.4112 16.63 20.8905 16.1093C20.3698 15.5886 20.3698 14.7444 20.8905 14.2237L23.9477 11.1665L11.1667 11.1665C10.4303 11.1665 9.83333 10.5695 9.83333 9.83317C9.83333 9.09679 10.4303 8.49984 11.1667 8.49984L23.9477 8.49984L20.8905 5.44265C20.3698 4.92195 20.3698 4.07773 20.8905 3.55703C21.4112 3.03633 22.2554 3.03633 22.7761 3.55703L28.1095 8.89036ZM9.05228 21.8332L21.8333 21.8332C22.5697 21.8332 23.1667 22.4301 23.1667 23.1665C23.1667 23.9029 22.5697 24.4998 21.8333 24.4998L9.05228 24.4998L12.1095 27.557C12.6302 28.0777 12.6302 28.9219 12.1095 29.4426C11.5888 29.9633 10.7446 29.9633 10.2239 29.4426L4.89052 24.1093C4.36982 23.5886 4.36982 22.7444 4.89052 22.2237L10.2239 16.8904C10.7446 16.3697 11.5888 16.3697 12.1095 16.8904C12.6302 17.4111 12.6302 18.2553 12.1095 18.776L9.05228 21.8332Z" fill="#9AA0A6"/>
</svg>
