<svg width="32" height="32" viewBox="0 0 32 32" fill="none" xmlns="http://www.w3.org/2000/svg">
<path fill-rule="evenodd" clip-rule="evenodd" d="M20 5.33317C16.3181 5.33317 13.3333 8.31794 13.3333 11.9998C13.3333 12.6756 13.4334 13.3256 13.6187 13.937C13.7614 14.4077 13.6333 14.9188 13.2855 15.2666L5.33329 23.2188L5.33329 26.6665H7.99996V25.3332C7.99996 24.5968 8.59691 23.9998 9.33329 23.9998H10.6666V22.6665C10.6666 21.9301 11.2636 21.3332 12 21.3332H14.1143L16.7332 18.7143C17.081 18.3665 17.5921 18.2384 18.0628 18.3811C18.6742 18.5664 19.3242 18.6665 20 18.6665C23.6819 18.6665 26.6666 15.6817 26.6666 11.9998C26.6666 8.31794 23.6819 5.33317 20 5.33317ZM10.6666 26.6665V27.9998C10.6666 28.7362 10.0697 29.3332 9.33329 29.3332H5.33329C3.86053 29.3332 2.66663 28.1393 2.66663 26.6665V23.2188C2.66663 22.5115 2.94758 21.8333 3.44767 21.3332L10.864 13.9169C10.7345 13.2973 10.6666 12.6559 10.6666 11.9998C10.6666 6.84518 14.8453 2.6665 20 2.6665C25.1546 2.6665 29.3333 6.84518 29.3333 11.9998C29.3333 17.1545 25.1546 21.3332 20 21.3332C19.3439 21.3332 18.7025 21.2653 18.0829 21.1358L15.6094 23.6093C15.3594 23.8594 15.0202 23.9998 14.6666 23.9998H13.3333V25.3332C13.3333 26.0696 12.7363 26.6665 12 26.6665H10.6666ZM18.6666 9.33317C18.6666 8.59679 19.2636 7.99984 20 7.99984C22.2091 7.99984 24 9.7907 24 11.9998C24 12.7362 23.403 13.3332 22.6666 13.3332C21.9302 13.3332 21.3333 12.7362 21.3333 11.9998C21.3333 11.2635 20.7363 10.6665 20 10.6665C19.2636 10.6665 18.6666 10.0696 18.6666 9.33317Z" fill="#E8EAED"/>
</svg>
