<svg width="32" height="32" viewBox="0 0 32 32" fill="none" xmlns="http://www.w3.org/2000/svg">
<path fill-rule="evenodd" clip-rule="evenodd" d="M8.00005 14.4002V11.2002C8.00005 6.78192 11.5818 3.2002 16 3.2002C20.4183 3.2002 24.0001 6.78192 24.0001 11.2002V14.4002C25.7674 14.4002 27.2001 15.8329 27.2001 17.6002V25.6002C27.2001 27.3675 25.7674 28.8002 24.0001 28.8002H8.00005C6.23274 28.8002 4.80005 27.3675 4.80005 25.6002V17.6002C4.80005 15.8329 6.23274 14.4002 8.00005 14.4002ZM20.8001 11.2002V14.4002H11.2V11.2002C11.2 8.54923 13.3491 6.4002 16 6.4002C18.651 6.4002 20.8001 8.54923 20.8001 11.2002Z" fill="#8AB4F8"/>
</svg>
