<svg width="33" height="33" viewBox="0 0 33 33" fill="none" xmlns="http://www.w3.org/2000/svg">
<path d="M16.25 3.7002C11.8318 3.7002 8.25005 7.28192 8.25005 11.7002V14.9002C6.48274 14.9002 5.05005 16.3329 5.05005 18.1002V26.1002C5.05005 27.8675 6.48274 29.3002 8.25005 29.3002H24.2501C26.0174 29.3002 27.4501 27.8675 27.4501 26.1002V18.1002C27.4501 16.3329 26.0174 14.9002 24.2501 14.9002H11.45V11.7002C11.45 9.04923 13.5991 6.9002 16.25 6.9002C18.4845 6.9002 20.366 8.42839 20.8989 10.499C21.1192 11.3548 21.9915 11.87 22.8472 11.6497C23.703 11.4294 24.2182 10.5571 23.9979 9.70138C23.1099 6.25127 19.9799 3.7002 16.25 3.7002Z" fill="#8AB4F8"/>
</svg>
